# xmcd CD database file
#
# Track frame offsets:
#	150
#	28986
#	50746
#	75417
#	90178
#	116116
#	130906
#	149354
#	175622
#	204180
#
# Disc length: 3186 seconds
#
# Revision: 0
# Processed by: cddbd v1.5.2PL0 Copyright (c) Steve Scherf et al.
# Submitted via: CDex 1.51
#
DISCID=7f0c700a
DTITLE=Willie McBlind - Find My Way Back Home
DYEAR=2007
DGENRE=Blues
TTITLE0=Chicken
TTITLE1=Cannonballer
TTITLE2=Find My Way
TTITLE3=Hope My Baby
TTITLE4=Shallow Gray
TTITLE5=Pony Blues
TTITLE6=Train
TTITLE7=Fall
TTITLE8=Every Time
TTITLE9=Time Ain`t Long
EXTD=YEAR: 2007
EXTT0=
EXTT1=
EXTT2=
EXTT3=
EXTT4=
EXTT5=
EXTT6=
EXTT7=
EXTT8=
EXTT9=
PLAYORDER=
